<?xml version="1.0" encoding="utf-8"?>
<!-- Generator: Adobe Illustrator 18.0.0, SVG Export Plug-In . SVG Version: 6.00 Build 0)  -->
<!DOCTYPE svg PUBLIC "-//W3C//DTD SVG 1.1//EN" "http://www.w3.org/Graphics/SVG/1.1/DTD/svg11.dtd">
<svg version="1.1" id="圖層_1" xmlns="http://www.w3.org/2000/svg" xmlns:xlink="http://www.w3.org/1999/xlink" x="0px" y="0px"
	 viewBox="0 0 937.5 1000" enable-background="new 0 0 937.5 1000" xml:space="preserve">
<path fill="#FFFFFF" d="M0,491c0-22.1,7.9-41,23.7-56.6C39.4,418.8,58.4,411,80.5,411h344L313.8,300.2
	c-15.6-15.6-23.4-34.5-23.4-56.6s7.8-41.2,23.4-57.1c15.9-15.6,35.1-23.4,57.3-23.4s41.2,7.8,56.9,23.4l246.9,247.9
	c15.9,15.6,23.9,34.5,23.9,56.6s-8,41-23.9,56.6l-242,242.5c-15.6,15.6-34.6,23.4-56.9,23.4c-22.3,0-41.2-7.8-56.9-23.4
	c-15.6-15.6-23.4-34.5-23.4-56.6s7.8-41.2,23.4-57.1l105.4-104.9h-344c-22.1,0-41.1-7.9-56.9-23.7S0,513.1,0,491L0,491z
	 M581.7,888.2c0-22.1,7.9-41.1,23.7-56.9s34.7-23.7,56.9-23.7H734c11.7,0,21.7-4.1,30-12.2c8.3-8.1,12.4-18.1,12.4-29.8V233.8
	c0-11.4-4.1-21.1-12.4-29.3s-18.3-12.2-30-12.2h-71.7c-22.1,0-41.1-7.9-56.9-23.7c-15.8-15.8-23.7-34.7-23.7-56.9s7.9-41,23.7-56.6
	s34.7-23.4,56.9-23.4H734c56.3,0,104.2,19.7,143.7,59c39.5,39.4,59.3,87,59.3,143v531.9c0,56.3-19.8,104.2-59.5,143.7
	c-39.7,39.5-87.5,59.3-143.5,59.3h-71.7c-22.1,0-41.1-7.9-56.9-23.7S581.7,910.4,581.7,888.2L581.7,888.2z"/>
</svg>
