<?xml version="1.0" encoding="utf-8"?>
<!-- Generator: Adobe Illustrator 18.0.0, SVG Export Plug-In . SVG Version: 6.00 Build 0)  -->
<!DOCTYPE svg PUBLIC "-//W3C//DTD SVG 1.1//EN" "http://www.w3.org/Graphics/SVG/1.1/DTD/svg11.dtd">
<svg version="1.1" id="Layer_1" xmlns="http://www.w3.org/2000/svg" xmlns:xlink="http://www.w3.org/1999/xlink" x="0px" y="0px"
	 viewBox="0 160 939.1 320" enable-background="new 0 160 939.1 320" xml:space="preserve">
<rect x="-465.8" y="431.6" fill="#4285F4" width="320" height="320"/>
<g>
	<rect y="160" fill="#4285F4" width="939.1" height="320"/>
</g>
<g>
	<path fill="#FFFFFF" d="M85,255v6.4c0,5.6-2.4,8.8-8.8,8.8s-8.8-3.2-8.8-8.8v-24.2h87.4v24c0,5.6-2.4,8.8-8.8,8.8
		c-6.4,0-8.8-3.2-8.8-8.8v-6.4H120V394c0,5.6-2.4,8.8-8.8,8.8s-8.8-3.2-8.8-8.8V255H85z"/>
</g>
<g>
	<rect y="480" fill="#FFFFFF" width="320" height="320"/>
</g>
<g>
	<path fill="#4285F4" d="M85,575v6.4c0,5.6-2.4,8.8-8.8,8.8s-8.8-3.2-8.8-8.8v-24.2h87.4v24c0,5.6-2.4,8.8-8.8,8.8
		c-6.4,0-8.8-3.2-8.8-8.8v-6.4H120V714c0,5.6-2.4,8.8-8.8,8.8s-8.8-3.2-8.8-8.8V575H85z"/>
	<path fill="#4285F4" d="M230.6,598.8h22.2v114.8c0,5.6-2.4,8.8-8.8,8.8s-8.8-3.2-8.8-8.8v-90.4h-0.4l-16.8,25v2.8
		c0,5.6-2,10.6-8.8,10.6c-6.4,0-8.8-5.2-8.8-10.6v-2.8l-16.8-25h-0.4v90.4c0,5.6-2.4,8.8-8.8,8.8s-8.8-3.2-8.8-8.8V598.8h22.2
		l21.6,31.2L230.6,598.8z"/>
</g>
<g>
	<path fill="#FFFFFF" d="M196.7,338.6c-3.6,0-8.5-0.8-8.5-6.2c0-5.3,4.4-6.2,8.5-6.2h16.9c6.4,0,11,0.6,15.9,5.5
		c4.8,4.8,5.4,8.5,5.5,14.6l1.3,41.9c0.1,3.6-1.7,7.2-5.8,7.2c-3.2,0-6.4-2.7-6.3-6.2l-8.5,4.4c-3.5,1.8-3.6,1.8-7.6,1.8h-11.8
		c-5.5,0-9.5-0.6-14-4.4c-5.1-4.2-6.4-8.7-6.4-15.2v-5.4c0-5.9,1.4-9.6,6-13.7c4.2-3.7,9-4.6,14.4-4.6h26.5v-2.8
		c0-9.2-2.1-10.8-10.9-10.8H196.7z M196.6,364.5c-3.3,0-8.2,0.9-8.2,5.4v8.2c0,4.1,5,5,8,5h13.6l13.6-7.1v-2.7
		c0-6.8-1.9-8.9-8.7-8.9H196.6z"/>
	<path fill="#FFFFFF" d="M274.1,338.6c-2.6,0-6.9-0.5-6.9,3.5c0,2.1,1.5,2.8,3.3,3.6l30.8,14c8,3.6,12.1,8.6,12.1,17.5
		c0,12.5-8.5,18.4-20.3,18.4h-19c-6.4,0-10.8-0.3-15.4-3.9c-2.3-1.8-5.6-4.1-5.6-7.2c0-3.5,3-6.2,6.4-6.2c1.9,0,3.3,0.6,4.8,2.2
		c2.2,2.4,6,2.7,9.9,2.7h16.7c4.4,0,10.3,0.4,10.3-6.8c0-3-3.6-4.9-6.4-6.2l-29-13.2c-6.8-3.1-10.8-7.1-10.8-15
		c0-9.8,7.7-15.7,16.9-15.7h21.1c6.8,0,9.6,0.4,14.3,4.2c2.3,1.9,4.9,3.5,4.9,6.9s-3,6.2-6.3,6.2c-2.3,0-3.7-0.9-5.3-2.6
		c-2.1-2.2-4.2-2.4-7.6-2.4H274.1z"/>
	<path fill="#FFFFFF" d="M370.7,331.3c2.2-1.9,5.3-5,8.2-5c3.5,0,6.2,2.8,6.2,6.3c0,3-1.9,4.4-4.1,6.2l-23.9,19.8l29,24.1
		c2.3,1.9,4.4,3.3,4.4,6.5c0,3.5-2.7,6.3-6.2,6.3c-2.4,0-4-1.5-5.8-3l-30.9-25.8l-5.1,4.6V387c0,4.2-0.9,8.5-6.2,8.5
		s-6.2-4.2-6.2-8.5v-77.7c0-4.2,0.9-8.5,6.2-8.5s6.2,4.2,6.2,8.5V355L370.7,331.3z"/>
	<path fill="#FFFFFF" d="M468.2,271h20v116.5c0,5.1-2.2,8-8,8s-8-2.9-8-8v-94.4h-0.3l-15.2,22.6v2.6c0,5-1.9,9.6-8,9.6
		c-5.8,0-8-4.6-8-9.6v-2.6l-15.2-22.6h-0.3v94.4c0,5.1-2.2,8-8,8c-5.8,0-8-2.9-8-8V271h20l19.5,28.2L468.2,271z"/>
	<path fill="#FFFFFF" d="M523.8,338.6c-3.6,0-8.5-0.8-8.5-6.2c0-5.3,4.4-6.2,8.5-6.2h16.9c6.4,0,11,0.6,15.9,5.5
		c4.8,4.8,5.4,8.5,5.5,14.6l1.3,41.9c0.1,3.6-1.7,7.2-5.8,7.2c-3.2,0-6.4-2.7-6.3-6.2l-8.5,4.4c-3.5,1.8-3.6,1.8-7.6,1.8h-11.8
		c-5.5,0-9.5-0.6-14-4.4c-5.1-4.2-6.4-8.7-6.4-15.2v-5.4c0-5.9,1.4-9.6,6-13.7c4.2-3.7,9-4.6,14.4-4.6H550v-2.8
		c0-9.2-2.1-10.8-10.9-10.8H523.8z M523.7,364.5c-3.3,0-8.2,0.9-8.2,5.4v8.2c0,4.1,5,5,8,5h13.6l13.6-7.1v-2.7
		c0-6.8-1.9-8.9-8.7-8.9H523.7z"/>
	<path fill="#FFFFFF" d="M592.5,351.2V387c0,4.2-0.9,8.5-6.2,8.5s-6.2-4.2-6.2-8.5v-51.6c0-4.5,0.5-9.1,6.2-9.1c5.5,0,6.2,4.6,6.2,9
		v1.4v0.3l10-6.5c3.2-2.1,6.7-4.1,10.7-4.1h9.1c4.8,0,7.7,1.3,11.4,4.5c5.5,4.8,5.3,10,5.5,16.7l1.3,38.8c0.1,4.4-0.5,9.2-6,9.2
		c-5,0-6-4.2-6.2-8.3l-1.3-38c-0.3-7.6-0.9-10.5-8.3-10.5h-4.1c-1.3,0-2.6,0.4-3.9,1.2L592.5,351.2z"/>
	<path fill="#FFFFFF" d="M677.9,338.6c-3.6,0-8.5-0.8-8.5-6.2c0-5.3,4.4-6.2,8.5-6.2h16.9c6.4,0,11,0.6,15.9,5.5
		c4.8,4.8,5.4,8.5,5.5,14.6l1.3,41.9c0.1,3.6-1.7,7.2-5.8,7.2c-3.2,0-6.4-2.7-6.3-6.2l-8.5,4.4c-3.5,1.8-3.6,1.8-7.6,1.8h-11.8
		c-5.5,0-9.5-0.6-14-4.4c-5.1-4.2-6.4-8.7-6.4-15.2v-5.4c0-5.9,1.4-9.6,6-13.7c4.2-3.7,9-4.6,14.4-4.6h26.5v-2.8
		c0-9.2-2.1-10.8-10.9-10.8H677.9z M677.8,364.5c-3.3,0-8.2,0.9-8.2,5.4v8.2c0,4.1,5,5,8,5h13.6l13.6-7.1v-2.7
		c0-6.8-1.9-8.9-8.7-8.9H677.8z"/>
	<path fill="#FFFFFF" d="M734.3,349.3c0-5.8,1.7-10.9,4.2-13l9-7.1c2.6-2.1,4.5-3,7.7-3h11.9c3.3,0,7.3,2.4,12.1,6.2l3.1,2.4v-1.4
		c0-3.9,2.1-7.2,6.3-7.2c5.4,0,6,4.5,6,8.6v60.2c0,11.2-0.9,13.5-6,17.8l-4.1,3.5c-5.4,4.5-8.5,5.3-15.4,5.3h-20.4
		c-3.6,0-8.5-0.8-8.5-6.2c0-5.3,4.4-6.2,8.5-6.2h22.6c2.6,0,4.2-1.2,6.2-2.8l3.1-2.8c1-1,1.8-2.8,1.8-5.1v-16.9l-2.6,2.6
		c-2.8,2.8-6.7,6-10.1,6h-14.5c-2.6,0-5.5-0.4-9.2-3.7l-7.7-6.9c-3.6-3.3-3.9-6.5-3.9-11.6V349.3z M746.6,366.2
		c0,2.6,0.1,5.3,1.5,6.4l5.1,4.1c0.9,0.8,2.1,1.2,3.6,1.2h9c1.5,0,3.3-1.3,5.6-3.2l9.5-7.8c0.9-0.8,1.3-2.4,1.3-4.1v-9
		c0-1.7-0.4-3.3-1.3-4.1l-9.5-7.8c-2.3-1.9-4.1-3.2-5.6-3.2h-9c-1.5,0-2.7,0.4-3.6,1.2l-5.1,4.1c-1.4,1.2-1.5,3.9-1.5,6.4V366.2z"/>
	<path fill="#FFFFFF" d="M833.9,395.5c-5.1,0-7.2,0-11-3.3l-5.3-4.6c-4.9-4.4-6.3-7.2-6.3-13.9v-23.8c0-6.5,0.9-10.4,6-14.8l4.4-3.7
		c5.8-5,8.6-5.1,13.6-5.1h11.3c6,0,8.9,0.6,13.6,4.5l5,4c5.6,4.5,6.4,9.2,6.4,16v9.9c0,7.1-1.2,9.1-8.5,9.1h-39.5v4.1
		c0,1.2,0.9,2.7,1.8,3.6l3.1,3.3c1.7,1.8,4.1,2.3,8.2,2.3h26.5c4.1,0,8.5,0.9,8.5,6.2c0,5.4-4.9,6.2-8.5,6.2H833.9z M823.6,357.5
		h35.7V350c0-2.3,0.1-4.2-1.5-5.8l-4.8-4.1c-1.5-1.4-4-1.5-5.9-1.5h-10.4c-2.3,0-4.2,0-6.3,1.4l-4.2,3.1c-1.5,1.2-2.6,2.1-2.6,5.7
		V357.5z"/>
</g>
<path fill="#FFFFFF" d="M1197.7,138.8h20.2v123.4c0,5.6-2.4,8.8-8.8,8.8s-8.8-3.2-8.8-8.8v-90.4h-0.4l-16.8,25v2.8
	c0,5.6-2,10.6-8.8,10.6c-6.4,0-8.8-5.2-8.8-10.6v-2.8l-16.8-25h-0.4v90.4c0,5.6-2.4,8.8-8.8,8.8s-8.8-3.2-8.8-8.8V138.8h20.2
	l23.6,39.8L1197.7,138.8z"/>
</svg>
