<?xml version="1.0" encoding="utf-8"?>
<!-- Generator: Adobe Illustrator 18.0.0, SVG Export Plug-In . SVG Version: 6.00 Build 0)  -->
<!DOCTYPE svg PUBLIC "-//W3C//DTD SVG 1.1//EN" "http://www.w3.org/Graphics/SVG/1.1/DTD/svg11.dtd">
<svg version="1.1" id="Layer_1" xmlns="http://www.w3.org/2000/svg" xmlns:xlink="http://www.w3.org/1999/xlink" x="0px" y="0px"
	 viewBox="0 80 160 160" enable-background="new 0 80 160 160" xml:space="preserve">
<rect x="-232.9" y="215.8" fill="#4285F4" width="160" height="160"/>
<g>
	<rect y="80" fill="#4285F4" width="160" height="160"/>
</g>
<g>
	<path fill="#FFFFFF" d="M42.5,127.5v3.2c0,2.8-1.2,4.4-4.4,4.4s-4.4-1.6-4.4-4.4v-12.1h43.7v12c0,2.8-1.2,4.4-4.4,4.4
		c-3.2,0-4.4-1.6-4.4-4.4v-3.2h-8.6V197c0,2.8-1.2,4.4-4.4,4.4c-3.2,0-4.4-1.6-4.4-4.4v-69.5H42.5z"/>
	<path fill="#FFFFFF" d="M116.3,135.1h10.1v61.7c0,2.8-1.2,4.4-4.4,4.4s-4.4-1.6-4.4-4.4v-45.2h-0.2l-8.4,12.5v1.4
		c0,2.8-1,5.3-4.4,5.3c-3.2,0-4.4-2.6-4.4-5.3v-1.4l-8.4-12.5h-0.2v45.2c0,2.8-1.2,4.4-4.4,4.4s-4.4-1.6-4.4-4.4v-61.7h10.1
		l11.8,19.9L116.3,135.1z"/>
</g>
<g>
	<rect y="240" fill="#FFFFFF" width="160" height="160"/>
</g>
<g>
	<path fill="#4285F4" d="M42.5,287.5v3.2c0,2.8-1.2,4.4-4.4,4.4s-4.4-1.6-4.4-4.4v-12.1h43.7v12c0,2.8-1.2,4.4-4.4,4.4
		c-3.2,0-4.4-1.6-4.4-4.4v-3.2h-8.6V357c0,2.8-1.2,4.4-4.4,4.4c-3.2,0-4.4-1.6-4.4-4.4v-69.5H42.5z"/>
	<path fill="#4285F4" d="M115.3,299.4h11.1v57.4c0,2.8-1.2,4.4-4.4,4.4s-4.4-1.6-4.4-4.4v-45.2h-0.2l-8.4,12.5v1.4
		c0,2.8-1,5.3-4.4,5.3c-3.2,0-4.4-2.6-4.4-5.3v-1.4l-8.4-12.5h-0.2v45.2c0,2.8-1.2,4.4-4.4,4.4s-4.4-1.6-4.4-4.4v-57.4h11.1
		l10.8,15.6L115.3,299.4z"/>
</g>
</svg>
